<svg xmlns="http://www.w3.org/2000/svg" viewBox="0 0 110.04 112.54"><defs><style>.cls-1{fill:#fff;}</style></defs><title>Asset 1</title><g id="Layer_2" data-name="Layer 2"><g id="Layer_1-2" data-name="Layer 1"><path class="cls-1" d="M37.43,58.12A11.07,11.07,0,0,1,27,52.06l-.27-.51-.47.34A19.75,19.75,0,0,1,14.85,56,14.19,14.19,0,0,1,1,45.18C-.87,38,2.27,27.44,16.68,19.43c11.1-6.17,20.4-6.29,30.25-6.43,2.94,0,6-.08,9.11-.28C65,12.13,76.18,10.26,91,.85A2,2,0,0,1,92,.5c12.41.6,17.19,8.32,17.54,14.75V17c-.42,7.69-6.68,16.5-19.47,17.61l-.51,0,.06.51a14.34,14.34,0,0,1-3.83,11.32A19.07,19.07,0,0,1,71.7,52.91h0c-3.71,0-9.17-1.19-14.07-6.89l-.46-.53-.35.61A21.21,21.21,0,0,1,55.6,48C51.27,54,44,58.12,37.43,58.12Zm-7.75-13c.26,0,.3.1.32.13a11.53,11.53,0,0,0,10.94,7.56h0c6.42,0,12.58-4.6,15.08-11.22l.09-.25a2,2,0,0,1,.29-.49,2.51,2.51,0,0,1,1.68-.93.39.39,0,0,1,.3.1c4.14,5.78,9.7,9.1,15.24,9.1A13,13,0,0,0,83.92,44c2.49-3.1,3.48-6.92,2.58-10-.09-.37-.13-1.09.18-1.38a3.34,3.34,0,0,1,1.82-.35c7.27,0,13.23-2.82,16.36-7.73a13.83,13.83,0,0,0,.85-13.34C103.22,5.94,99,2.83,91.88,1.19a2.23,2.23,0,0,0-.47-.06,1.55,1.55,0,0,0-.87.31C78.19,9,67.21,13.24,55.94,14.83a86.86,86.86,0,0,1-10.24.81c-9.18.24-17.59.92-27.49,6.93S3.51,36.2,5.4,42.94c1.3,4.63,5.73,7.75,11,7.75h0c2.83,0,7.19-.87,11.91-5A2.28,2.28,0,0,1,29.68,45.1Z"/><path class="cls-1" d="M93.62,1.12c10.83,1.14,15.09,8.2,15.42,14.13V17c-.42,7.5-6.54,16.06-19,17.15l-1,.09.13,1a13.9,13.9,0,0,1-3.71,10.92A18.6,18.6,0,0,1,71.7,52.41c-3.61,0-8.92-1.16-13.7-6.71l-.92-1.07-.7,1.22a21.76,21.76,0,0,1-1.18,1.83c-4.25,6-11.39,9.94-17.77,9.94a10.62,10.62,0,0,1-9.95-5.79l-.54-1-.93.68a19.27,19.27,0,0,1-11.16,4A13.7,13.7,0,0,1,1.48,45.06C-.33,38,2.77,27.74,16.92,19.87c11-6.11,20.23-6.23,30-6.37,2.94,0,6-.08,9.14-.28a70.28,70.28,0,0,0,12.47-1.85,73.64,73.64,0,0,1-12.68,3,88.07,88.07,0,0,1-10.18.8c-9.26.24-17.73.93-27.74,7s-15,14-13,20.93c1.35,4.86,6,8.12,11.51,8.12,2.92,0,7.41-.89,12.23-5.12a1.89,1.89,0,0,1,.95-.46,12,12,0,0,0,11.33,7.68c6.54,0,12.82-4.62,15.45-11.3h0l.18-.5a1.16,1.16,0,0,1,.21-.34,2.09,2.09,0,0,1,1.27-.75c4.23,5.85,9.89,9.2,15.56,9.2a13.53,13.53,0,0,0,10.69-5.27C86.9,41.1,87.92,37.12,87,34a1.41,1.41,0,0,1,0-.91c.06,0,.33-.21,1.49-.21,7.44,0,13.55-2.9,16.77-8a14.31,14.31,0,0,0,.88-13.82C103.8,6,99.9,2.89,93.62,1.12M92,0a2.46,2.46,0,0,0-1.28.43C76.72,9.33,65.81,11.58,56,12.22c-13.57.89-25-1.31-39.58,6.78C-9.39,33.35-.75,56.51,14.85,56.51A20.14,20.14,0,0,0,26.6,52.3a11.61,11.61,0,0,0,10.83,6.32c6.57,0,14.11-4.1,18.58-10.35.44-.62.86-1.26,1.24-1.92,4.31,5,9.49,7.06,14.45,7.06,10.27,0,19.61-8.8,18.42-18.31C102.71,34,109.59,25.4,110,17V15.23C109.63,7.6,103.82.57,92.07,0ZM16.43,50.19c-11.55,0-18.09-15,2-27.19,9.64-5.85,17.85-6.62,27.24-6.86A91.65,91.65,0,0,0,56,15.33C65.72,14,76.72,10.48,90.77,1.88a1.18,1.18,0,0,1,.64-.25,1.72,1.72,0,0,1,.35.05c7.94,1.83,11.44,5.4,13.49,9.8,4.22,9.05-2.1,20.36-16.74,20.36h0a3.51,3.51,0,0,0-2.17.49A2.09,2.09,0,0,0,86,34.21c.93,3.13-.32,6.78-2.49,9.5a12.51,12.51,0,0,1-9.91,4.89c-5.1,0-10.61-3-14.83-8.89a.82.82,0,0,0-.71-.31A3,3,0,0,0,56,40.52a2.13,2.13,0,0,0-.37.63h0c-2.53,7-8.85,11.14-14.7,11.14A11,11,0,0,1,30.46,45a.77.77,0,0,0-.78-.44,2.78,2.78,0,0,0-1.68.71c-3.9,3.43-8,4.88-11.57,4.88Z"/><path class="cls-1" d="M53.54,112A107,107,0,0,1,31.3,109.8c-.25,0-.25-.14-.25-.21-.87-21-4.64-39.75-11.53-57.28a.37.37,0,0,1,.09-.28,5.11,5.11,0,0,1,3.3-1.52c.31,0,.48.07.5.14C30.19,67.8,34.07,87,35,107.57V108l.38.08a98.12,98.12,0,0,0,20.12,2.1,107.8,107.8,0,0,0,34.68-6l.4-.13-.06-.41a231.23,231.23,0,0,1,.91-70.17,2.31,2.31,0,0,1,2-1.57c.15,0,.25,0,.27.07s0,.1,0,.25a229,229,0,0,0-.7,71.27c.1.54-.65,1.39-1.49,1.69a115.58,115.58,0,0,1-29.81,6.57C59.1,111.93,56.35,112,53.54,112Z"/><path class="cls-1" d="M93.2,32.41a229.46,229.46,0,0,0-.65,71.17,1.88,1.88,0,0,1-1.17,1.11,114.66,114.66,0,0,1-29.68,6.54c-2.62.21-5.37.31-8.16.31a106.89,106.89,0,0,1-22-2.2c-.89-20.91-4.65-39.58-11.49-57.07A4.77,4.77,0,0,1,22.91,51H23c6.71,17,10.56,36.08,11.44,56.57l0,.77.76.16a98.4,98.4,0,0,0,20.22,2.11,108.56,108.56,0,0,0,34.85-6l.78-.27-.12-.82a230.89,230.89,0,0,1,.91-70c.09-.51.79-1,1.31-1.12m.25-1a2.81,2.81,0,0,0-2.54,2A230.38,230.38,0,0,0,90,103.69a106.86,106.86,0,0,1-34.52,5.94,96.68,96.68,0,0,1-20-2.09c-.84-19.45-4.37-38.82-11.58-57.07-.13-.32-.49-.46-1-.46-1.55,0-4.27,1.42-3.85,2.48C26.32,71,29.73,89.88,30.55,109.61a.68.68,0,0,0,.65.68,108.57,108.57,0,0,0,22.34,2.25c2.81,0,5.58-.1,8.24-.31a114.94,114.94,0,0,0,29.94-6.6c1-.35,2-1.38,1.81-2.23a228.86,228.86,0,0,1,.7-71.12c.11-.63-.26-.9-.78-.9Z"/><path class="cls-1" d="M38,109.17C36.39,90.64,33.66,69,25.87,49a2.72,2.72,0,0,1,1.42-.67c7.21,18.59,9,39.37,10.79,59.47l.09,1.06A.51.51,0,0,1,38,109.17Z"/><path class="cls-1" d="M27,48.86a135.31,135.31,0,0,1,6.61,24.79,161.91,161.91,0,0,0-7.11-24.52,2.65,2.65,0,0,1,.5-.27m.32-1.08c-.74,0-2.11.81-1.89,1.35,7.37,19,10.31,39.55,12.13,60.3,0,.25.15.36.32.36a1,1,0,0,0,.81-1C36.85,88.05,35.11,67,27.72,48a.41.41,0,0,0-.42-.21Z"/><path class="cls-1" d="M42.23,109.87c-1.55-17.62-4.1-38.19-11.18-57.62a2,2,0,0,1,1.08-.45h0c6.76,18.5,8.59,39.33,10.2,57.72A.51.51,0,0,1,42.23,109.87Z"/><path class="cls-1" d="M31.86,52.37A130.75,130.75,0,0,1,36.35,68a155,155,0,0,0-4.69-15.57.72.72,0,0,1,.2-.09m.27-1.07c-.67,0-1.74.6-1.55,1.12,6.67,18.31,9.43,37.9,11.17,57.71,0,.25.15.36.32.36a1,1,0,0,0,.81-1c-1.73-19.69-3.59-39.7-10.25-57.9a.49.49,0,0,0-.5-.26Z"/><path class="cls-1" d="M41.12,74.41a164.91,164.91,0,0,0-5.47-19.72A2.72,2.72,0,0,1,37,54.13h0a81.2,81.2,0,0,1,3.13,14.2c.3,1.88.61,3.83,1,5.79A.47.47,0,0,1,41.12,74.41Z"/><path class="cls-1" d="M36.72,54.69a60,60,0,0,1,2.06,8.23c-.79-2.75-1.62-5.41-2.52-8a2.8,2.8,0,0,1,.46-.22m.3-1.06c-.74,0-2,.69-1.84,1.23a166.27,166.27,0,0,1,5.51,19.93c0,.22.16.31.29.31A.93.93,0,0,0,41.66,74c-1.3-7-1.89-13.66-4.16-20.16-.06-.16-.24-.24-.48-.24Z"/><path class="cls-1" d="M86.61,106.12c-.39-3.71-.91-10.45-.87-13.24a.47.47,0,0,1,.4-.37c0,2.34.49,6.94.9,10.64.1.88.19,1.7.26,2.39,0,0,0,.13-.12.23A1.21,1.21,0,0,1,86.61,106.12ZM85.34,81.56a.72.72,0,0,1,.26-.47l.24,5.73a.68.68,0,0,1-.26.48Zm0-7.54A237.4,237.4,0,0,1,87.76,36.3c0-.25.39-.5.66-.57a247.25,247.25,0,0,0-3,38A.37.37,0,0,1,85.35,74Z"/><path class="cls-1" d="M88.54,35.22a1.41,1.41,0,0,0-1.28,1,239.68,239.68,0,0,0-2.41,38c0,.31.16.44.36.44a.87.87,0,0,0,.75-.88,250.19,250.19,0,0,1,3-38.08c0-.31-.13-.44-.39-.44ZM85.8,80.48a1.18,1.18,0,0,0-1,1.1l.25,6c0,.24.14.34.3.34a1.16,1.16,0,0,0,1-1.11l-.25-6c0-.25-.13-.35-.29-.35ZM86.19,92a1,1,0,0,0-1,.88c0,2.81.5,9.72.89,13.43a.35.35,0,0,0,.39.32c.51,0,1.34-.57,1.28-1.14-.37-3.57-1.2-10.22-1.16-13a.41.41,0,0,0-.45-.45Z"/><path class="cls-1" d="M41.36,49.11c-5,0-9.27-3.08-11.41-8.23l-.28-.66-.52.48c-3.91,3.53-8.54,5.55-12.7,5.55-3.64,0-6.48-1.54-7.59-4.12-1.54-3.58.36-8.57,5.21-13.7l.18-.16a.87.87,0,0,1-.16.2C8,34.94,8.53,39.31,9.41,41.35c1.16,2.7,4.1,4.31,7.85,4.31,4.32,0,9-2.13,12.75-5.84.24-.24.34-.26.34-.26s.24.55.4.94a12.44,12.44,0,0,0,5,6.12,11.89,11.89,0,0,0,6.42,2c5.14,0,9.61-3.57,11.38-9.09a1,1,0,0,1,.43-.54C52,45.12,47,49.11,41.36,49.11Z"/><path class="cls-1" d="M14.47,27.66a1.13,1.13,0,0,0-.76.43C3.45,38.93,8.11,46.75,16.45,46.75c3.92,0,8.65-1.73,13-5.68,2.39,5.73,7.1,8.54,11.88,8.54,5.42,0,10.93-3.62,13.19-10.67.13-.41,0-.59-.29-.59a1.4,1.4,0,0,0-1.15,1C51.29,45,46.85,48.07,42.2,48.07a11.29,11.29,0,0,1-6.14-1.87c-4.89-3.15-4.73-7.14-5.73-7.14a1.06,1.06,0,0,0-.67.4c-4.05,4-8.62,5.7-12.4,5.7-7.49,0-11.85-6.78-2.81-16.34.59-.63.45-1.16,0-1.16Z"/><path class="cls-1" d="M38.37,45.15a14.52,14.52,0,0,1-7.6-8.07l-.25-.62-.52.42c-6.15,4.86-10.3,5.88-12.69,5.88s-4.11-1-4.89-2.85c-1.19-2.79.1-6.83,3.21-10l.18-.16a1.09,1.09,0,0,1-.18.22C12.86,32.8,11.8,36.4,13,39.1a5.28,5.28,0,0,0,5.19,3.07c2.42,0,6.62-1.06,12.8-6.14a.64.64,0,0,1,.26-.16,9.11,9.11,0,0,1,.46,1A13.56,13.56,0,0,0,39,44.49a1.33,1.33,0,0,1-.29.43A.83.83,0,0,1,38.37,45.15Z"/><path class="cls-1" d="M16,29.09a1.17,1.17,0,0,0-.76.42c-5.88,6.1-4.7,13.75,2,13.75,3.16,0,7.55-1.68,13-6a15,15,0,0,0,7.86,8.34.43.43,0,0,0,.19,0c.66,0,1.56-1.28,1-1.55-7.39-3.49-7-8.73-8.15-8.73a1,1,0,0,0-.57.27c-5.32,4.37-9.52,6-12.48,6-5.86,0-6.89-6.49-2.15-11.4.6-.63.46-1.18,0-1.18Z"/><path class="cls-1" d="M16.48,26.36a1.57,1.57,0,0,1,.29-.32l.29-.24a10.59,10.59,0,0,1,1-.79,7.3,7.3,0,0,1-1.2,1Z"/><path class="cls-1" d="M18.39,24.37c-.53,0-1.54,1-1.93,1.28-.73.59-.69,1.33-.21,1.33a1,1,0,0,0,.6-.28c.61-.49,2.08-1.43,1.82-2.13a.28.28,0,0,0-.28-.2Z"/><path class="cls-1" d="M89.51,29.78a1.49,1.49,0,0,1,.24-.36.65.65,0,0,1,.39-.23h.42c6.61,0,11.48-3.71,12.4-9.44.89-5.53-2.29-12.85-11.37-15.85l-.23-.08-.2.13C80.7,10.7,70.8,16.42,55.73,18.09a.94.94,0,0,1,.61-.56C71.44,15.9,81,10.38,91.93,3.32a.48.48,0,0,1,.21-.08c9.66,3.06,12.13,10.35,11.31,15.66S98,29.78,89.71,29.78Z"/><path class="cls-1" d="M92.14,2.74a.93.93,0,0,0-.48.17h0C80.21,10.29,70.92,15.45,56.29,17c-.87.1-1.54,1.58-.78,1.58h.07C70.32,17,79.9,11.81,91.43,4.38c15.74,5.2,14.32,24.32-.87,24.32h-.42c-.84,0-1.65,1.56-.84,1.58h.41c16.67,0,20.54-21.81,2.56-27.53Z"/></g></g></svg>