<svg xmlns="http://www.w3.org/2000/svg" viewBox="0 0 155.63 129.33"><defs><style>.cls-1{fill:#ffe4cf;}.cls-2{fill:#fff;}.cls-3{fill:#e0e0e0;}.cls-4{fill:none;stroke:#38342f;stroke-linecap:round;stroke-linejoin:round;stroke-width:6px;}.cls-5{fill:#38342f;}</style></defs><title>Asset 1</title><g id="Layer_2" data-name="Layer 2"><g id="OBJECTS"><circle class="cls-1" cx="76.97" cy="52.6" r="48.7"/><path class="cls-2" d="M19.41,69.38A57.56,57.56,0,0,1,77,11.82h0a57.56,57.56,0,0,1,57.55,57.56Z"/><path class="cls-3" d="M77,11.82h0a58.38,58.38,0,0,0-10.66,1A57.56,57.56,0,0,1,113.2,69.38h21.32A57.56,57.56,0,0,0,77,11.82Z"/><path class="cls-4" d="M19.41,69.38A57.56,57.56,0,0,1,77,11.82h0a57.56,57.56,0,0,1,57.55,57.56Z"/><line class="cls-4" x1="3" y1="69.38" x2="150.93" y2="69.38"/><path class="cls-5" d="M82.38,5.41A5.41,5.41,0,1,1,77,0,5.41,5.41,0,0,1,82.38,5.41Z"/><path class="cls-5" d="M93.07,75c-1.63,1.47-2.89,3.3-4.43,4.88A9,9,0,0,1,83,82.94a16.76,16.76,0,0,1-11-12.5c-2.58-.43-5.08-.75-7.53-1a26.6,26.6,0,0,0,10.18,14A28,28,0,0,1,61.45,69.21c-1.55-.11-3.1-.19-4.64-.23A26.56,26.56,0,0,0,67.12,83.46,27.93,27.93,0,0,1,53.8,69c-1.5,0-3,0-4.53.08A26.58,26.58,0,0,0,59.58,83.46,27.91,27.91,0,0,1,46.34,69.17c-1.93.1-3.88.23-5.91.4A49.47,49.47,0,0,0,69.53,95c3.36,1.09,5.77,4,7.93,7a4.75,4.75,0,0,0,3.82,1.92h9.08a4.78,4.78,0,0,0,4.38-6.63,16.71,16.71,0,0,1-.83-2.81A14.16,14.16,0,0,1,96.2,83.53c3.08-4.33,8.61-6.94,10.29-12A14.3,14.3,0,0,0,93.07,75Z"/><text></text><text></text></g></g></svg>